<?xml version="1.0" standalone="no"?>
<!DOCTYPE svg PUBLIC "-//W3C//DTD SVG 1.1//EN" "http://www.w3.org/Graphics/SVG/1.1/DTD/svg11.dtd" >
<svg xmlns="http://www.w3.org/2000/svg" xmlns:xlink="http://www.w3.org/1999/xlink" version="1.1">
<metadata>
Created by FontForge 20190801 at Tue Jul 31 17:54:29 2012
 By Jimmy Wärting
GNU General Public License
</metadata>
<defs>
<font id="RoadNumbers" horiz-adv-x="556" >
  <font-face 
    font-family="RoadNumbers"
    font-weight="400"
    font-stretch="normal"
    units-per-em="1000"
    panose-1="2 0 5 6 0 0 0 2 0 4"
    ascent="800"
    descent="-200"
    x-height="484"
    cap-height="484"
    bbox="3 -5 435.091 649"
    underline-thickness="50"
    underline-position="-100"
    unicode-range="U+0020-0079"
  />
<missing-glyph horiz-adv-x="500" 
 />
    <glyph glyph-name=".notdef" horiz-adv-x="500" 
 />
    <glyph glyph-name="one" unicode="1" horiz-adv-x="340" 
d="M224 452q0 57 -40 19l-22 -22l-73 -76q-18 -14 -33 -1q-6 5 -18 18l-20 21q-14 17 7 40l178 179q9 10 31 10h57q23 0 23 -26v-595q0 -18 -19 -18h-57q-14 0 -14 18v433z" />
    <glyph glyph-name="two" unicode="2" horiz-adv-x="427" 
d="M46 -1q-21 0 -21 23v59q0 15 16 36l246 289q15 18 13 51q-1 13 -4 24q-2 11 -5 17l-17 21q-3 5 -8 8q-24 20 -61 20t-59 -25q-8 -8 -14 -20l-8 -18q-11 -28 -30 -28h-53q-14 0 -14 24q0 32 24 74q25 45 85 73q28 13 72 13q50 0 84 -17q81 -46 99 -132q10 -48 -9 -94
q-14 -36 -54 -84l-82 -97q-50 -58 -70 -80q-15 -17 -7 -30q7 -11 28 -11h164q31 0 31 -21v-49q0 -26 -25 -26h-321z" />
    <glyph glyph-name="three" unicode="3" horiz-adv-x="425" 
d="M374 637q24 0 24 -26v-47q0 -16 -24 -47l-44 -57l-47 -58q-26 -30 8 -48q1 0 2 -1l15 -8q11 -6 20 -12q26 -18 45 -43q47 -63 27 -150q-22 -86 -111 -130q-41 -19 -94 -11q-47 7 -82 30q-30 20 -54 58q-19 33 -25 60q-11 43 25 43h24q15 0 22 -2q19 -3 26 -27
q6 -17 13 -27q10 -15 30 -27q47 -31 106 13q25 17 29 54q3 34 -14 63q-14 26 -54 37q-15 4 -32 5q-12 1 -22 0q-30 -2 -30 23v62q0 24 17 43l36 43q27 32 42 52q15 18 10 31q-5 14 -29 14h-164q-23 0 -23 28v40q0 22 23 22h305z" />
    <glyph glyph-name="four" unicode="4" horiz-adv-x="387" 
d="M303 643l-8 -14l-180 -326q-3 -5 0 -9q3 -6 14 -9q14 -4 40 -4h82q19 0 23 5l3 6v56q0 20 24 20h41q21 0 21 -29v-310q0 -21 -19 -21h-50q-9 0 -13 10l-2 6v167h-247q-29 0 -29 26v66l208 359z" />
    <glyph glyph-name="five" unicode="5" horiz-adv-x="449" 
d="M371 636q27 0 27 -22v-42q0 -33 -27 -33h-195q-25 0 -25 -26v-85q0 -19 8 -25q4 -3 8 -4h9h47q42 0 82 -22l18 -10l19 -13q21 -16 44 -49q27 -39 30 -97q2 -62 -27 -109q-28 -43 -68 -69q-28 -18 -65 -29q-71 -18 -134 18q-23 13 -52 41q-25 23 -33 37q-8 11 -10 24
q-1 14 9 17l51 18q18 7 31 -9q3 -5 7 -10l10 -12q14 -13 32 -22q33 -15 70 -5q34 8 55 32q52 58 14 125q-17 27 -48 42q-25 12 -49 12l-67 -1l-59 -3q-24 0 -24 25v273q0 31 30 31z" />
    <glyph glyph-name="six" unicode="6" horiz-adv-x="429" 
d="M281 568q-30 -27 -44 -45q-22 -29 -35 -48q-19 -29 -31 -53q-6 -12 -5 -21q0 -6 5 -10q4 -4 12 -5h19q1 1 2 1h28q36 -3 70 -19q59 -29 87 -85q22 -43 22 -93q0 -23 -10 -53q-12 -34 -34 -62q-25 -33 -60 -52q-42 -22 -93 -22t-91 22q-35 19 -60 53q-20 28 -31 61
q-10 28 -10 48v28q0 20 3 41q3 27 11 58q9 36 24 79q15 44 35 83q16 32 36 63q15 22 34 44l23 29q16 21 24 27q4 3 8 4h87q19 0 21 -16t-10 -24zM287 128q29 29 29 70q0 40 -29 69q-30 29 -71 29t-70 -29t-29 -69q0 -41 29 -70t70 -29t71 29z" />
    <glyph glyph-name="seven" unicode="7" horiz-adv-x="406" 
d="M18 621q0 6 3 12q6 8 17 8h328q26 0 26 -24v-68l-7 -25q-2 -4 -10 -27l-62 -169q-1 -4 -3 -11l-8 -22q-5 -12 -9 -22l-31 -87q-17 -46 -28 -78l-29 -81q-8 -24 -22 -24h-64q-26 0 -14 35l79 211q1 4 3 10l1 3q1 3 1 2q1 4 2 6q9 25 15 41l73 196q13 38 -28 38h-213
q-20 0 -20 27v49z" />
    <glyph glyph-name="eight" unicode="8" horiz-adv-x="449" 
d="M48 472q0 73 52 125t125 52q72 0 124 -52q51 -52 51 -125q0 -54 -28 -96q-14 -18 1 -34q53 -61 53 -137q0 -82 -59 -142q-59 -59 -142 -59q-84 0 -143 59t-59 142q0 39 16 75q12 29 39 64q12 13 0 30q-30 48 -30 98zM154 274q-29 -29 -29 -70q0 -42 29 -72q30 -29 72 -29
t72 29q30 30 30 72q0 41 -30 70q-30 30 -72 30t-72 -30zM144 472q0 -79 80 -79q79 0 79 79t-79 79q-80 0 -80 -79z" />
    <glyph glyph-name="nine" unicode="9" horiz-adv-x="429" 
d="M146 79q29 26 44 46l36 48q18 28 29 52q7 13 6 21q0 7 -5 12q-4 3 -11 5h-14l-3 -1q-5 -1 -9 -1q-6 0 -11 -1q-6 0 -13 1q-35 2 -70 20q-59 29 -86 84q-22 43 -22 93q0 23 10 53q12 34 33 62q25 33 61 52q40 21 91 21q52 0 93 -22q34 -19 59 -52q20 -27 32 -61
q9 -27 9 -48v-29q0 -20 -3 -40q-3 -27 -10 -58q-9 -36 -24 -80q-15 -43 -35 -82q-17 -32 -38 -62q-8 -12 -17 -24l-39 -50q-16 -20 -25 -26q-4 -3 -8 -4h-85q-20 0 -22 15q-1 15 10 25q16 12 37 31zM140 520q-28 -29 -28 -70t28 -70q29 -29 69 -29q42 0 72 29q29 29 29 70
t-29 70q-30 29 -72 29q-40 0 -69 -29z" />
    <glyph glyph-name="A" unicode="A" horiz-adv-x="415" 
d="M230 484q17 0 26 -25l142 -441l1 -8q0 -9 -8 -9h-63q-10 0 -16 15l-8 32q-11 48 -33 48h-119q-33 0 -42 -50q-8 -50 -22 -50h-59q-14 0 -14 14q0 8 4 17l70 217q28 86 46 141q10 32 15 50l7 23q3 26 24 26h49zM169 244q-6 -19 -9 -31q-4 -14 -4 -18q0 -22 29 -22h52
q22 0 22 21l-32 113q-6 17 -19 17q-14 0 -20 -19z" />
    <glyph glyph-name="B" unicode="B" horiz-adv-x="430" 
d="M241 498q6 0 11 -1q15 -2 29 -7q39 -13 67 -53q22 -31 27 -63q3 -27 -4 -54q-6 -19 -17 -37l-13 -17q-13 -19 2 -35q8 -8 15 -21q10 -17 15 -35q14 -48 -11 -94q-25 -47 -65 -67q-15 -7 -32 -11l-13 -2h-198q-19 0 -19 26l-2 440q0 31 29 31h179zM111 317q0 -26 25 -26
h110q18 0 33 15q18 18 18 50q0 27 -24 45q-20 16 -42 16h-92q-28 0 -28 -27v-73zM111 109q0 -25 25 -25h110q18 0 33 15q18 19 18 50q0 28 -24 45q-19 15 -42 15h-92q-28 0 -28 -26v-74z" />
    <glyph glyph-name="C" unicode="C" horiz-adv-x="388" 
d="M264 86q19 7 35 17l6 3q7 3 14 4q23 3 35 -16q13 -19 2 -39l-8 -12l-4 -4q-57 -42 -118 -42q-85 0 -145 72t-60 174q0 103 60 175t145 72q65 0 114 -43q0 1 4 -5q5 -7 8 -14q10 -22 -4 -38q-15 -17 -37 -13q-7 1 -14 4l-5 3q-30 24 -66 24q-51 0 -88 -48t-37 -117
t37 -118q37 -48 88 -48q15 0 38 9z" />
    <glyph glyph-name="D" unicode="D" horiz-adv-x="487" 
d="M424 253q0 -67 -17.5 -115.5t-50.5 -79t-80 -44.5t-113 -14h-100q-13 0 -21.5 7.5t-8.5 24.5v428q0 17 8.5 24t21.5 7h109q65 0 111 -15.5t77.5 -45.5t47.5 -74t16 -103zM344 250q0 35 -8 64.5t-26 52t-46.5 34.5t-79.5 12h-53q-14 0 -14 -13v-308q1 -13 13 -13h61
q41 0 69 10.5t46.5 32t28 53.5t9.5 75z" />
    <glyph glyph-name="E" unicode="E" horiz-adv-x="387" 
d="M341 39q0 -11 -1 -18.5t-3 -12t-5 -6.5t-6 -2h-239q-13 0 -21.5 7.5t-8.5 24.5v428q0 17 8.5 24t21.5 7h237q4 0 6.5 -1.5t4.5 -6.5t3 -12.5t1 -18.5t-1 -18.5t-3 -12t-4.5 -6.5t-6.5 -2h-161q-14 0 -14 -13v-94q0 -13 13 -13h135q4 0 7 -2t4.5 -6.5t2.5 -11.5t1 -18
t-1 -18.5t-2.5 -11.5t-4.5 -6t-7 -2h-135q-13 0 -13 -13v-113q0 -13 13 -13h164q3 0 6 -2t5 -6.5t3 -12t1 -18.5z" />
    <glyph glyph-name="F" unicode="F" horiz-adv-x="611" 
 />
    <glyph glyph-name="G" unicode="G" horiz-adv-x="778" 
 />
    <glyph glyph-name="H" unicode="H" horiz-adv-x="448" 
d="M401 12q0 -4 -3 -7t-8 -4.5t-13.5 -3t-21.5 -1.5q-14 0 -22.5 1.5t-14 3t-7.5 4.5t-2 7v178q0 20 -20 20h-148q-16 0 -16 -20v-177q0 -4 -2.5 -7t-7.5 -4.5t-13.5 -3t-22.5 -1.5q-13 0 -22 1.5t-14 3t-7.5 4.5t-2.5 7v464q0 4 2.5 7t7.5 5t14 3t22 1q14 0 22.5 -1
t13.5 -3t7.5 -5t2.5 -7v-160q0 -20 20 -20h144q20 0 20 20v160q0 4 2 7t7.5 5t14 3t22.5 1q13 0 21.5 -1t13.5 -3t8 -5t3 -7v-465z" />
    <glyph glyph-name="I" unicode="I" horiz-adv-x="278" 
 />
    <glyph glyph-name="J" unicode="J" horiz-adv-x="500" 
 />
    <glyph glyph-name="K" unicode="K" horiz-adv-x="408" 
d="M33 469q0 21 19 21h41q4 -1 7 -3q8 -5 8 -19v-126q0 -27 17 -29q15 -2 30 15l98 120q18 22 22 26q16 19 29 19h46q17 0 18 -17q0 -17 -14 -31l-121 -136q-20 -21 -4 -49l58 -93q24 -39 38 -62q20 -33 29 -49q18 -31 15 -46q-1 -6 -5 -9q-4 -2 -8 -2h-50q-12 0 -24 20
l-84 146l-18 31q-14 26 -34 7l-17 -21q-1 0 -1 -1l-11 -13q-9 -10 -9 -26v-121q0 -21 -13 -21h-51q-11 0 -11 21v448z" />
    <glyph glyph-name="L" unicode="L" 
 />
    <glyph glyph-name="M" unicode="M" horiz-adv-x="468" 
d="M35 450q-2 25 6 36q6 8 17 8l38 -1q16 0 29 -25l35 -59q14 -24 23 -40q12 -21 19 -34q27 -49 57 -5q6 7 19 28q10 17 26 44l39 67q16 24 28 24l46 1q5 -1 9 -4q10 -6 9 -25q-1 -5 -1 -27l-2 -393v-22q-2 -20 -17 -20l-33 -1q-6 0 -9 1q-10 1 -14 5q-5 7 -3 27v42
q1 26 2 69l4 124q2 30 -17 32q-17 2 -30 -16l-62 -104q-24 -42 -40 -5l-25 45l-35 61q-17 26 -34 18q-16 -7 -16 -32q1 -11 1 -50q0 -31 1 -79v-76l1 -41q0 -22 -17 -22h-39q-17 0 -17 22z" />
    <glyph glyph-name="N" unicode="N" horiz-adv-x="722" 
 />
    <glyph glyph-name="O" unicode="O" horiz-adv-x="456" 
d="M373 67q-60 -71 -144 -71q-85 0 -146 71q-60 72 -60 173q0 100 60 172q61 72 146 72q84 0 144 -72t60 -172q0 -101 -60 -173zM141 356q-37 -48 -37 -116t37 -116q36 -49 88 -49t88 49q37 48 37 116t-37 116q-36 48 -88 48t-88 -48z" />
    <glyph glyph-name="P" unicode="P" horiz-adv-x="371" 
d="M218 497q77 0 117 -50q31 -38 30 -88q-1 -60 -43 -98q-38 -35 -87 -34h-105q-21 0 -21 -26v-179q0 -22 -17 -22h-42q-17 0 -17 22v446q0 27 25 27zM109 337q0 -33 36 -33h98q45 0 45 56q0 57 -54 57h-97q-28 0 -28 -26v-54z" />
    <glyph glyph-name="Q" unicode="Q" horiz-adv-x="778" 
 />
    <glyph glyph-name="R" unicode="R" horiz-adv-x="722" 
 />
    <glyph glyph-name="S" unicode="S" horiz-adv-x="667" 
 />
    <glyph glyph-name="T" unicode="T" horiz-adv-x="424" 
d="M410 455q0 -24 -4 -33.5t-11 -9.5h-129q-12 0 -12 -13v-383q0 -4 -1.5 -7.5t-6.5 -5.5t-14 -2h-23h-23t-13.5 1t-6.5 4t-2 10v383q0 13 -13 13h-122q-4 0 -7 2.5t-5 7.5t-3 13t-1 20q0 13 1 21t3 13t5 7t7 2h366q3 0 6 -2t5 -7t3 -13t1 -21z" />
    <glyph glyph-name="U" unicode="U" horiz-adv-x="722" 
 />
    <glyph glyph-name="V" unicode="V" horiz-adv-x="667" 
 />
    <glyph glyph-name="W" unicode="W" horiz-adv-x="944" 
 />
    <glyph glyph-name="X" unicode="X" horiz-adv-x="434" 
d="M60 460q-12 17 -4 30q6 12 19 12h36q21 0 38 -31l27 -46q11 -20 32 -57q25 -52 57 -1l14 23l50 86q8 15 16 20q6 3 14 3h18q10 0 21 -1q36 -5 10 -47l-116 -177q-16 -24 0 -52l116 -182q23 -37 -11 -38h-17h-1h-18h-10q-16 1 -32 27q-27 44 -65 109q-22 37 -44 -2
l-70 -113q-15 -20 -26 -21h-49q-31 3 -6 42l21 34l97 143q16 23 0 51q-4 6 -21 34z" />
    <glyph glyph-name="Y" unicode="Y" horiz-adv-x="420" 
d="M38 469q-12 27 13 31q24 2 50 0v0q4 -1 8 -3q5 -3 9 -9q4 -5 8 -14q7 -22 28 -78l31 -78q22 -56 48 2l73 160q8 17 23 18q26 2 52 0q20 -3 6 -39l-34 -74q-25 -56 -63 -139l-99 -215q-9 -21 -16 -27q-5 -3 -16 -3h-45q-28 0 -11 37l45 94q8 22 0 49z" />
    <glyph glyph-name="Z" unicode="Z" horiz-adv-x="611" 
 />
    <glyph glyph-name="bracketleft" unicode="[" horiz-adv-x="278" 
 />
    <glyph glyph-name="backslash" unicode="\" horiz-adv-x="278" 
 />
    <glyph glyph-name="bracketright" unicode="]" horiz-adv-x="278" 
 />
    <glyph glyph-name="asciicircum" unicode="^" horiz-adv-x="469" 
 />
    <glyph glyph-name="underscore" unicode="_" 
 />
    <glyph glyph-name="grave" unicode="`" horiz-adv-x="333" 
 />
    <glyph glyph-name="a" unicode="a" horiz-adv-x="415" 
d="M230 484q17 0 26 -25l142 -441l1 -8q0 -9 -8 -9h-63q-10 0 -16 15l-8 32q-11 48 -33 48h-119q-33 0 -42 -50q-8 -50 -22 -50h-59q-14 0 -14 14q0 8 4 17l70 217q28 86 46 141q10 32 15 50l7 23q3 26 24 26h49zM169 244q-6 -19 -9 -31q-4 -14 -4 -18q0 -22 29 -22h52
q22 0 22 21l-32 113q-6 17 -19 17q-14 0 -20 -19z" />
    <glyph glyph-name="b" unicode="b" horiz-adv-x="430" 
d="M241 498q6 0 11 -1q15 -2 29 -7q39 -13 67 -53q22 -31 27 -63q3 -27 -4 -54q-6 -19 -17 -37l-13 -17q-13 -19 2 -35q8 -8 15 -21q10 -17 15 -35q14 -48 -11 -94q-25 -47 -65 -67q-15 -7 -32 -11l-13 -2h-198q-19 0 -19 26l-2 440q0 31 29 31h179zM111 317q0 -26 25 -26
h110q18 0 33 15q18 18 18 50q0 27 -24 45q-20 16 -42 16h-92q-28 0 -28 -27v-73zM111 109q0 -25 25 -25h110q18 0 33 15q18 19 18 50q0 28 -24 45q-19 15 -42 15h-92q-28 0 -28 -26v-74z" />
    <glyph glyph-name="c" unicode="c" horiz-adv-x="388" 
d="M264 86q19 7 35 17l6 3q7 3 14 4q23 3 35 -16q13 -19 2 -39l-8 -12l-4 -4q-57 -42 -118 -42q-85 0 -145 72t-60 174q0 103 60 175t145 72q65 0 114 -43q0 1 4 -5q5 -7 8 -14q10 -22 -4 -38q-15 -17 -37 -13q-7 1 -14 4l-5 3q-30 24 -66 24q-51 0 -88 -48t-37 -117
t37 -118q37 -48 88 -48q15 0 38 9z" />
    <glyph glyph-name="d" unicode="d" horiz-adv-x="487" 
d="M424 253q0 -67 -17.5 -115.5t-50.5 -79t-80 -44.5t-113 -14h-100q-13 0 -21.5 7.5t-8.5 24.5v428q0 17 8.5 24t21.5 7h109q65 0 111 -15.5t77.5 -45.5t47.5 -74t16 -103zM344 250q0 35 -8 64.5t-26 52t-46.5 34.5t-79.5 12h-53q-14 0 -14 -13v-308q1 -13 13 -13h61
q41 0 69 10.5t46.5 32t28 53.5t9.5 75z" />
    <glyph glyph-name="e" unicode="e" horiz-adv-x="387" 
d="M341 39q0 -11 -1 -18.5t-3 -12t-5 -6.5t-6 -2h-239q-13 0 -21.5 7.5t-8.5 24.5v428q0 17 8.5 24t21.5 7h237q4 0 6.5 -1.5t4.5 -6.5t3 -12.5t1 -18.5t-1 -18.5t-3 -12t-4.5 -6.5t-6.5 -2h-161q-14 0 -14 -13v-94q0 -13 13 -13h135q4 0 7 -2t4.5 -6.5t2.5 -11.5t1 -18
t-1 -18.5t-2.5 -11.5t-4.5 -6t-7 -2h-135q-13 0 -13 -13v-113q0 -13 13 -13h164q3 0 6 -2t5 -6.5t3 -12t1 -18.5z" />
    <glyph glyph-name="f" unicode="f" horiz-adv-x="278" 
 />
    <glyph glyph-name="g" unicode="g" 
 />
    <glyph glyph-name="h" unicode="h" horiz-adv-x="448" 
d="M401 12q0 -4 -3 -7t-8 -4.5t-13.5 -3t-21.5 -1.5q-14 0 -22.5 1.5t-14 3t-7.5 4.5t-2 7v178q0 20 -20 20h-148q-16 0 -16 -20v-177q0 -4 -2.5 -7t-7.5 -4.5t-13.5 -3t-22.5 -1.5q-13 0 -22 1.5t-14 3t-7.5 4.5t-2.5 7v464q0 4 2.5 7t7.5 5t14 3t22 1q14 0 22.5 -1
t13.5 -3t7.5 -5t2.5 -7v-160q0 -20 20 -20h144q20 0 20 20v160q0 4 2 7t7.5 5t14 3t22.5 1q13 0 21.5 -1t13.5 -3t8 -5t3 -7v-465z" />
    <glyph glyph-name="i" unicode="i" horiz-adv-x="222" 
 />
    <glyph glyph-name="j" unicode="j" horiz-adv-x="222" 
 />
    <glyph glyph-name="k" unicode="k" horiz-adv-x="408" 
d="M33 469q0 21 19 21h41q4 -1 7 -3q8 -5 8 -19v-126q0 -27 17 -29q15 -2 30 15l98 120q18 22 22 26q16 19 29 19h46q17 0 18 -17q0 -17 -14 -31l-121 -136q-20 -21 -4 -49l58 -93q24 -39 38 -62q20 -33 29 -49q18 -31 15 -46q-1 -6 -5 -9q-4 -2 -8 -2h-50q-12 0 -24 20
l-84 146l-18 31q-14 26 -34 7l-17 -21q-1 0 -1 -1l-11 -13q-9 -10 -9 -26v-121q0 -21 -13 -21h-51q-11 0 -11 21v448z" />
    <glyph glyph-name="l" unicode="l" horiz-adv-x="222" 
 />
    <glyph glyph-name="m" unicode="m" horiz-adv-x="468" 
d="M35 450q-2 25 6 36q6 8 17 8l38 -1q16 0 29 -25l35 -59q14 -24 23 -40q12 -21 19 -34q27 -49 57 -5q6 7 19 28q10 17 26 44l39 67q16 24 28 24l46 1q5 -1 9 -4q10 -6 9 -25q-1 -5 -1 -27l-2 -393v-22q-2 -20 -17 -20l-33 -1q-6 0 -9 1q-10 1 -14 5q-5 7 -3 27v42
q1 26 2 69l4 124q2 30 -17 32q-17 2 -30 -16l-62 -104q-24 -42 -40 -5l-25 45l-35 61q-17 26 -34 18q-16 -7 -16 -32q1 -11 1 -50q0 -31 1 -79v-76l1 -41q0 -22 -17 -22h-39q-17 0 -17 22z" />
    <glyph glyph-name="n" unicode="n" 
 />
    <glyph glyph-name="o" unicode="o" horiz-adv-x="456" 
d="M373 67q-60 -71 -144 -71q-85 0 -146 71q-60 72 -60 173q0 100 60 172q61 72 146 72q84 0 144 -72t60 -172q0 -101 -60 -173zM141 356q-37 -48 -37 -116t37 -116q36 -49 88 -49t88 49q37 48 37 116t-37 116q-36 48 -88 48t-88 -48z" />
    <glyph glyph-name="p" unicode="p" horiz-adv-x="371" 
d="M218 497q77 0 117 -50q31 -38 30 -88q-1 -60 -43 -98q-38 -35 -87 -34h-105q-21 0 -21 -26v-179q0 -22 -17 -22h-42q-17 0 -17 22v446q0 27 25 27zM109 337q0 -33 36 -33h98q45 0 45 56q0 57 -54 57h-97q-28 0 -28 -26v-54z" />
    <glyph glyph-name="q" unicode="q" 
 />
    <glyph glyph-name="r" unicode="r" horiz-adv-x="333" 
 />
    <glyph glyph-name="s" unicode="s" horiz-adv-x="500" 
 />
    <glyph glyph-name="t" unicode="t" horiz-adv-x="424" 
d="M410 455q0 -24 -4 -33.5t-11 -9.5h-129q-12 0 -12 -13v-383q0 -4 -1.5 -7.5t-6.5 -5.5t-14 -2h-23h-23t-13.5 1t-6.5 4t-2 10v383q0 13 -13 13h-122q-4 0 -7 2.5t-5 7.5t-3 13t-1 20q0 13 1 21t3 13t5 7t7 2h366q3 0 6 -2t5 -7t3 -13t1 -21z" />
    <glyph glyph-name="u" unicode="u" 
 />
    <glyph glyph-name="v" unicode="v" horiz-adv-x="500" 
 />
    <glyph glyph-name="w" unicode="w" horiz-adv-x="722" 
 />
    <glyph glyph-name="x" unicode="x" horiz-adv-x="434" 
d="M60 460q-12 17 -4 30q6 12 19 12h36q21 0 38 -31l27 -46q11 -20 32 -57q25 -52 57 -1l14 23l50 86q8 15 16 20q6 3 14 3h18q10 0 21 -1q36 -5 10 -47l-116 -177q-16 -24 0 -52l116 -182q23 -37 -11 -38h-17h-1h-18h-10q-16 1 -32 27q-27 44 -65 109q-22 37 -44 -2
l-70 -113q-15 -20 -26 -21h-49q-31 3 -6 42l21 34l97 143q16 23 0 51q-4 6 -21 34z" />
    <glyph glyph-name="space" unicode=" " horiz-adv-x="500" 
 />
    <glyph glyph-name="y" unicode="y" horiz-adv-x="420" 
d="M38 469q-12 27 13 31q24 2 50 0v0q4 -1 8 -3q5 -3 9 -9q4 -5 8 -14q7 -22 28 -78l31 -78q22 -56 48 2l73 160q8 17 23 18q26 2 52 0q20 -3 6 -39l-34 -74q-25 -56 -63 -139l-99 -215q-9 -21 -16 -27q-5 -3 -16 -3h-45q-28 0 -11 37l45 94q8 22 0 49z" />
    <glyph glyph-name="zero" unicode="0" horiz-adv-x="439" 
d="M220 97q59 0 85 81q10 31 14 74q4 33 4 70q0 38 -4 72q-4 42 -14 73q-26 82 -85 82q-33 0 -55 -26q-20 -22 -32 -62q-9 -32 -14 -74q-3 -32 -3 -65q0 -225 104 -225zM357 74q-50 -74 -137 -74q-89 0 -138 71q-57 82 -57 251q0 165 57 249q51 75 138 75t137 -73
q57 -83 57 -251q0 -165 -57 -248z" />
  </font>
</defs>
</svg>
